<svg version="1.1" xmlns="http://www.w3.org/2000/svg" width="1600" height="1600" viewBox="0 0 1600 1600">
<path d="M0 0 C0.80280723 -0.00202347 1.60561445 -0.00404694 2.43274917 -0.00613173 C5.15714072 -0.01175314 7.88148245 -0.01017762 10.60587877 -0.0087052 C12.57355063 -0.01126256 14.54122197 -0.01425595 16.50889257 -0.01764891 C21.962945 -0.02575343 27.41698467 -0.02754837 32.87104241 -0.02837186 C38.78693912 -0.03033422 44.70282879 -0.03800685 50.61872137 -0.04494441 C61.00280959 -0.05629294 71.38689641 -0.06384855 81.77098936 -0.06885248 C92.91776813 -0.07422826 104.06454239 -0.0817112 115.21131796 -0.09176546 C115.91434275 -0.09239704 116.61736754 -0.09302861 117.34169611 -0.09367933 C120.20483714 -0.09625432 123.06797816 -0.09883792 125.93111917 -0.10143418 C163.09202778 -0.13505955 200.25294116 -0.15554238 237.41385997 -0.17387416 C245.45019005 -0.17784992 253.48652002 -0.18203592 261.52284999 -0.18622956 C321.30232421 -0.21738607 381.08179983 -0.24447305 440.86127995 -0.26117634 C454.72447476 -0.2650632 468.58766953 -0.26908329 482.45086429 -0.27316059 C484.19112881 -0.27367145 485.93139333 -0.27418018 487.67165785 -0.27468678 C543.56775478 -0.29095867 599.46380847 -0.32795376 655.35988403 -0.37884058 C695.51512664 -0.41538718 735.6703602 -0.44909568 775.82561868 -0.4613896 C777.06397575 -0.46177074 777.06397575 -0.46177074 778.32735014 -0.46215957 C796.4495798 -0.46767559 814.57180943 -0.47151639 832.69403978 -0.47378505 C839.98550095 -0.47472305 847.27696208 -0.47587918 854.56842321 -0.47709948 C855.36644265 -0.477227 856.16446209 -0.47735452 856.98666394 -0.47748591 C882.70745438 -0.48169664 908.428187 -0.50448801 934.14895616 -0.53685441 C960.05256394 -0.56934868 985.95610866 -0.58297082 1011.85973593 -0.57046021 C1015.43776692 -0.56873554 1019.01579796 -0.56722275 1022.5938291 -0.56583697 C1023.29523536 -0.56555736 1023.99664163 -0.56527775 1024.71930263 -0.56498967 C1035.83409762 -0.56111116 1046.94876805 -0.57742331 1058.06353244 -0.60211688 C1068.98786683 -0.62597115 1079.91205337 -0.6279972 1090.83640043 -0.60821255 C1096.68242804 -0.59824904 1102.52803028 -0.59792378 1108.3740182 -0.62387537 C1113.68921837 -0.64728379 1119.00365255 -0.64322576 1124.31883299 -0.61697868 C1126.23273073 -0.61238897 1128.14668544 -0.61792321 1130.06051549 -0.63466096 C1148.02553579 -0.78167261 1148.02553579 -0.78167261 1155.36247724 6.1311025 C1156.56651685 7.05340172 1157.77426098 7.97090828 1158.98747724 8.8811025 C1171.68919696 20.16824554 1174.56997515 34.44081097 1175.78435224 50.5842275 C1178.04064052 80.50001436 1187.28358774 105.51665357 1207.36247724 128.1311025 C1208.09724287 128.96125875 1208.83200849 129.791415 1209.58903974 130.6467275 C1230.95502545 153.37041798 1260.6961691 164.23741353 1291.23747724 166.0061025 C1304.63332578 166.93014921 1315.52752861 168.64230417 1326.36247724 177.1311025 C1326.97607099 177.58227438 1327.58966474 178.03344625 1328.22185224 178.49829 C1337.20551993 185.53417133 1343.01865312 196.03768043 1345.36247724 207.1311025 C1345.45780089 208.90907407 1345.50051343 210.69019172 1345.50774091 212.47070211 C1345.51402509 213.54814687 1345.52030927 214.62559164 1345.52678388 215.73568624 C1345.52799238 216.90644705 1345.52920088 218.07720785 1345.53044599 219.28344625 C1345.53463545 220.50947561 1345.5388249 221.73550497 1345.54314131 222.99868673 C1345.55299787 227.02202696 1345.55304254 231.04525741 1345.54997724 235.0686025 C1345.54985765 235.75551546 1345.54973806 236.44242841 1345.54961485 237.15015692 C1345.54420584 261.63377756 1344.98434562 286.04001663 1343.52068037 310.48412985 C1343.36149681 313.14750652 1343.20740017 315.81114376 1343.05388349 318.4748525 C1336.83676701 425.00233281 1320.79426406 530.94113452 1203.36247724 906.1311025 C1202.77877887 907.44114349 1202.19512109 908.75120256 1201.61150068 910.06127828 C1192.59256311 930.27605427 1183.1375205 950.26361345 1173.35393232 970.11889547 C1172.36546513 972.12503843 1171.37858885 974.1319588 1170.39177412 976.138915 C1162.89512177 991.36885763 1155.20327512 1006.46397659 1146.93864912 1021.295165 C1145.2298858 1024.36966852 1143.53774539 1027.45298715 1141.84685224 1030.5373525 C1133.01538658 1046.6029425 1123.8146036 1062.42347342 1114.36247724 1078.1311025 C1113.73921552 1079.16847555 1113.11595381 1080.2058486 1112.47380537 1081.27465719 C1110.6706208 1084.2713782 1108.86188444 1087.26464852 1107.04997724 1090.2561025 C1106.53620527 1091.10656149 1106.0224333 1091.95702047 1105.49309248 1092.83325094 C1096.75260448 1107.185475 1087.40351298 1121.16288728 1078.08342451 1135.14233297 C1076.42717397 1137.62780595 1074.77465163 1140.11573053 1073.12224287 1142.60375875 C1066.45983321 1152.61465192 1059.65273099 1162.50760784 1052.66972822 1172.29757589 C1051.35483661 1174.14181911 1050.04422179 1175.98903318 1048.7347917 1177.83715719 C1037.84395126 1193.19436619 1026.60684706 1208.27434861 1014.97478193 1223.07787985 C1013.47762192 1224.98446913 1011.9854934 1226.89485548 1010.49528974 1228.80688375 C1001.31107543 1240.57348885 991.93175266 1252.18164371 982.24968427 1263.5427236 C979.3646534 1266.93096982 976.53742873 1270.3598389 973.73747724 1273.8186025 C970.15613772 1278.22199326 966.40987621 1282.4350683 962.58513349 1286.62719625 C960.40041675 1289.08836222 958.347483 1291.61770816 956.29997724 1294.1936025 C951.56463124 1300.05641184 946.41277854 1305.49342546 941.20988935 1310.94189352 C937.40338958 1314.93235925 933.70910595 1318.98876836 930.09587568 1323.15478414 C927.1547813 1326.50804598 924.10741989 1329.75909919 921.04997724 1333.0061025 C920.3713664 1333.72789694 919.69275556 1334.44969137 918.99358076 1335.19335836 C912.9780118 1341.55372963 906.80776554 1347.7519609 900.56633466 1353.89037985 C897.16908261 1357.24703654 893.88057153 1360.62769584 890.76872724 1364.25219625 C887.54826142 1367.9925209 884.07992248 1371.32099146 880.42497724 1374.6311025 C874.10582163 1380.43277892 868.00099553 1386.41375337 861.99358076 1392.5373525 C858.19963382 1396.38212225 854.29744741 1400.0167408 850.18840498 1403.52392477 C848.33257232 1405.15742475 846.59267086 1406.86581104 844.86247724 1408.6311025 C841.93780609 1411.60167656 838.87628164 1414.33839369 835.71794599 1417.05688375 C833.34609339 1419.14553007 831.03342249 1421.28658355 828.72380537 1423.44335836 C823.31988861 1428.48864295 817.81025393 1433.28897456 812.04216474 1437.920165 C809.2299441 1440.24045201 806.54450462 1442.66181384 803.86247724 1445.1311025 C799.46869176 1449.17065068 794.94408901 1452.97789869 790.29997724 1456.7248525 C786.99893668 1459.42889637 783.7749908 1462.21239775 780.54997724 1465.0061025 C774.80351003 1469.96731866 768.91141463 1474.70064511 762.91716474 1479.357665 C759.8890175 1481.71103481 756.89464855 1484.10363793 753.90813154 1486.50952047 C739.82103815 1497.85545169 725.35245032 1508.67326112 710.76530927 1519.36498922 C708.38486502 1521.11464719 706.0113082 1522.8732342 703.63982099 1524.63500875 C693.22312146 1532.36600108 682.67812349 1539.88681475 672.02068037 1547.28198141 C669.23845336 1549.21737702 666.46397752 1551.16351551 663.69060224 1553.11157125 C652.30105536 1561.09862271 640.81100397 1568.88174803 629.09489912 1576.38159078 C626.02992007 1578.3440318 622.96965696 1580.31372449 619.90935224 1582.28344625 C617.68563916 1583.71221345 615.46168378 1585.14060361 613.23747724 1586.5686025 C612.20638838 1587.23118063 611.17529951 1587.89375875 610.11296552 1588.576415 C608.1260545 1589.84834766 606.13018932 1591.10641254 604.12517256 1592.34960836 C601.39397576 1594.04415624 601.39397576 1594.04415624 599.15446943 1595.89892477 C591.31245181 1601.764705 582.1956566 1601.21231314 572.79802412 1601.18798727 C569.89285156 1601.1935444 567.00005265 1601.28947321 564.09685224 1601.39086813 C550.61756661 1601.60042573 542.11235591 1598.43931161 531.2906999 1590.52438253 C528.57839272 1588.56454484 525.76007902 1586.83665278 522.90935224 1585.0842275 C520.97523485 1583.85271517 519.04293963 1582.61833639 517.11247724 1581.3811025 C516.06455 1580.70990377 515.01662275 1580.03870504 513.93694013 1579.34716696 C504.09929254 1573.01465816 494.42504619 1566.45571898 484.79753584 1559.80932516 C482.55986923 1558.26714346 480.31640451 1556.73401206 478.06950849 1555.20532125 C469.49484296 1549.36308105 461.05876973 1543.34482574 452.66325849 1537.24829 C449.4845203 1534.9401795 446.29349278 1532.65076128 443.09050459 1530.37646383 C428.26477087 1519.84719384 413.71378802 1508.97831388 399.4156999 1497.74340719 C397.50911061 1496.24624718 395.59872427 1494.75411866 393.68669599 1493.263915 C385.42838895 1486.81753279 377.28432322 1480.23539217 369.17107099 1473.607665 C367.57012244 1472.30062709 365.96649748 1470.99686895 364.36247724 1469.6936025 C353.13414862 1460.55426525 342.14501288 1451.12841238 331.17155927 1441.68579 C329.34069364 1440.11238213 327.50593661 1438.54359257 325.67107099 1436.9748525 C318.46365421 1430.79249474 311.42602044 1424.4659344 304.51311201 1417.95556539 C300.76375608 1414.42579107 296.95478646 1410.99280806 293.04997724 1407.63500875 C290.67110261 1405.51494687 288.46135871 1403.24208711 286.23161787 1400.96728414 C284.44866688 1399.21577234 282.60959903 1397.59360795 280.70622724 1395.9748525 C275.21283808 1391.199091 270.17370804 1385.99030653 265.07341474 1380.8029775 C261.56659055 1377.26000048 258.05214589 1373.80444682 254.26482099 1370.56079 C250.18471091 1367.05203641 246.561369 1363.21634949 242.92497724 1359.2561025 C236.50949267 1352.3456502 229.93775601 1345.62347671 223.21037763 1339.01635641 C219.34439095 1335.19878269 215.68778232 1331.28060804 212.14201826 1327.16454977 C208.98534323 1323.55747797 205.66487074 1320.10430946 202.36247724 1316.6311025 C195.15076814 1309.04637396 188.27360891 1301.22104041 181.48747724 1293.2561025 C177.93846391 1289.09903562 174.35573702 1284.98534748 170.67497724 1280.9436025 C166.87740476 1276.75740949 163.2918178 1272.43091236 159.73747724 1268.0373525 C157.64565399 1265.47762142 155.52081356 1262.95418974 153.37370771 1260.4411611 C147.64371211 1253.73430115 142.1545873 1246.86603506 136.74187177 1239.90161031 C134.89956161 1237.53693185 133.04348406 1235.18323925 131.18742841 1232.82934469 C121.22982762 1220.19267093 111.54558262 1207.38481038 102.03484052 1194.40893453 C100.53305003 1192.36343011 99.02559443 1190.32231954 97.51482099 1188.28344625 C85.53576037 1172.09344428 74.15440768 1155.48953919 63.00261396 1138.72167867 C61.2340934 1136.06351644 59.46062767 1133.4087027 57.68669599 1130.75414938 C47.14670195 1114.95116968 36.96900555 1098.93170313 27.11247724 1082.6936025 C26.76041212 1082.11359487 26.40834699 1081.53358724 26.04561323 1080.93600363 C18.24018481 1068.05874832 10.72423272 1055.02320252 3.35210127 1041.89355367 C2.69290771 1040.71957606 2.03315915 1039.5459099 1.37285322 1038.37255758 C-9.40895056 1019.21288407 -19.64374164 999.79901039 -29.59003741 980.19354147 C-30.62454967 978.15664576 -31.66230368 976.12143406 -32.70099932 974.08666891 C-42.93489971 954.0233828 -52.53416865 933.73119845 -61.63752276 913.1311025 C-61.99717119 912.3194161 -62.35681963 911.5077297 -62.72736651 910.67144674 C-81.54403016 868.19001095 -98.49361502 825.0559493 -113.63752276 781.1311025 C-113.94840838 780.23002767 -114.259294 779.32895284 -114.57960039 778.40057272 C-148.90985214 678.72024247 -172.65141311 576.0186003 -205.63752276 295.1311025 C-205.67922594 294.22783224 -205.72092913 293.32456198 -205.76389605 292.39391989 C-206.53897147 275.37845772 -206.88304219 258.37106639 -206.93268877 241.3395986 C-206.94167059 238.5919858 -206.96289607 235.84485881 -206.99421221 233.0974111 C-207.04032241 229.04865812 -207.05304314 225.00042013 -207.06330401 220.951415 C-207.08081209 219.73873953 -207.09832018 218.52606405 -207.11635882 217.27664083 C-207.08605471 205.29759851 -203.94429408 195.62256173 -196.63752276 186.1311025 C-196.18635088 185.51621969 -195.73517901 184.90133688 -195.27033526 184.26782125 C-187.61807166 174.51875096 -176.64512825 168.72838833 -164.48249346 167.25195211 C-160.53839294 166.82712494 -156.58986087 166.46969352 -152.63752276 166.1311025 C-118.9753711 163.23805011 -88.23038476 151.10546194 -65.63752276 125.1311025 C-62.06984289 120.62448881 -58.83156566 115.90612372 -55.63752276 111.1311025 C-55.08322588 110.33446188 -54.52892901 109.53782125 -53.95783526 108.71704 C-41.50033807 89.6604362 -37.60302351 67.17996493 -36.40754229 44.88232321 C-35.54113519 30.412855 -30.29354029 18.18473308 -19.63752276 8.1311025 C-12.87681851 2.88520267 -8.57812024 -0.02046011 0 0 Z M59.36247724 97.1311025 C57.38247724 104.0611025 55.40247724 110.9911025 53.36247724 118.1311025 C45.14039081 142.04989939 33.81218458 164.77448222 17.36247724 184.1311025 C16.77337568 184.90196188 16.18427412 185.67282125 15.57732099 186.46704 C3.165021 202.50679149 -12.01615267 216.57099915 -28.63752276 228.1311025 C-29.20535479 228.53296774 -29.77318682 228.93483297 -30.35822588 229.34887594 C-52.79289093 245.0852292 -78.20568109 255.41825383 -104.63752276 262.1311025 C-104.70033092 270.51197447 -104.55156736 278.84741967 -104.12189776 287.21704 C-104.06638247 288.33544775 -104.01086718 289.45385549 -103.95366961 290.60615438 C-103.77041666 294.23977667 -103.5802252 297.87296952 -103.38752276 301.5061025 C-103.32094469 302.76540579 -103.25436663 304.02470907 -103.18577105 305.32217306 C-101.86596783 329.97930094 -100.06048659 354.55830189 -97.63752276 379.1311025 C-97.53653277 380.16138571 -97.43554278 381.19166891 -97.33149248 382.25317281 C-92.04137929 435.92325245 -84.06405049 489.22014395 -73.63752276 542.1311025 C-73.45425432 543.06122152 -73.27098589 543.99134054 -73.08216387 544.94964498 C-67.69246517 572.19528802 -61.52225646 599.22524664 -54.63752276 626.1311025 C-54.40806963 627.02829 -54.17861651 627.9254775 -53.94221026 628.8498525 C-43.4513628 669.76995365 -31.46459714 710.2119383 -17.63752276 750.1311025 C-17.37366778 750.89344198 -17.1098128 751.65578146 -16.83796221 752.44122213 C4.66048853 814.43273224 30.5017516 874.53705223 59.73747724 933.2561025 C60.22368543 934.23646475 60.70989362 935.21682699 61.2108354 936.22689718 C67.59461126 949.07492065 74.35608284 961.6446304 81.50017256 974.08618063 C84.02872288 978.50304548 86.41537238 982.9780669 88.73747724 987.5061025 C94.21780432 998.02165395 100.46536214 1008.08500967 106.61003584 1018.22094625 C108.98622069 1022.1669094 111.30004056 1026.14760397 113.61247724 1030.1311025 C117.66790897 1037.07840669 121.98328633 1043.83204752 126.38982099 1050.56079 C128.51883401 1053.81692756 130.60871369 1057.09505545 132.67888349 1060.388915 C139.48784896 1071.21721479 146.52253058 1081.81798529 153.92107099 1092.25219625 C156.78407584 1096.2917563 159.58016631 1100.37245376 162.35612959 1104.47216696 C167.7864371 1112.49085061 173.40135797 1120.31984954 179.26091474 1128.02954 C182.09162701 1131.75588599 184.8626685 1135.52378881 187.6266374 1139.29980367 C196.58902812 1151.5412662 205.9297556 1163.41678106 215.52458662 1175.16650289 C219.04780741 1179.48746362 222.50386378 1183.85407569 225.92497724 1188.2561025 C231.02774207 1194.80185851 236.39304658 1201.0972184 241.83318037 1207.36352438 C243.38722477 1209.15970597 244.93107055 1210.96416053 246.47185224 1212.7717275 C251.69068754 1218.89360093 256.95537794 1224.95879398 262.36247724 1230.91625875 C264.15851253 1232.90522752 265.92201028 1234.91673445 267.67497724 1236.9436025 C271.7713326 1241.64542378 276.02060699 1246.20410319 280.26091474 1250.77563375 C282.21706865 1252.88622086 284.16089205 1255.00662544 286.08903974 1257.14282125 C291.70906763 1263.35137713 297.50258722 1269.31425654 303.45402998 1275.20336813 C306.34695886 1278.07676366 309.16832713 1280.94986033 311.79997724 1284.0686025 C319.13775319 1292.71669558 327.47331693 1300.82970434 336.14372724 1308.1311025 C340.1715678 1311.76183202 343.93786139 1315.66831577 347.73357099 1319.53930563 C351.46883643 1323.32590135 355.3171165 1326.89439596 359.34489912 1330.36743063 C363.4614133 1333.96589365 367.39367291 1337.76612184 371.36247724 1341.52563375 C375.93606198 1345.84016779 380.60546262 1350.02010221 385.36247724 1354.1311025 C386.54086757 1355.15453434 387.71925314 1356.17797168 388.89763349 1357.201415 C390.71716037 1358.77779343 392.53736642 1360.3533853 394.35759443 1361.92895406 C397.66944979 1364.79619974 400.97865027 1367.66633684 404.28044599 1370.545165 C411.54116527 1376.87044289 418.87366904 1383.0758948 426.36247724 1389.1311025 C427.57530932 1390.12517173 428.78750672 1391.12001561 429.99919599 1392.1154775 C437.58416873 1398.33379698 445.26127359 1404.40103019 453.07805341 1410.32543844 C457.71859189 1413.84946834 462.27590476 1417.4592601 466.79997724 1421.1311025 C473.58164011 1426.61320951 480.60425424 1431.71554454 487.69841474 1436.78344625 C491.61986153 1439.58671298 495.50115325 1442.44029913 499.37175459 1445.31323141 C516.96513349 1458.36755487 535.03572094 1470.65495717 553.29265302 1482.7561025 C553.99387281 1483.22131811 554.6950926 1483.68653372 555.41756147 1484.16584677 C556.74052156 1485.04318934 558.06419059 1485.91946417 559.38869184 1486.79447836 C561.87953564 1488.4460915 564.25955922 1490.03817986 566.48161787 1492.04443258 C568.36213855 1493.41823671 568.36213855 1493.41823671 570.73430341 1492.56640524 C573.75484792 1490.91682036 576.57257848 1489.11121899 579.41325849 1487.16625875 C579.98437864 1486.77716833 580.55549879 1486.38807791 581.14392561 1485.98719686 C582.99081714 1484.72728622 584.83296044 1483.46062692 586.67497724 1482.1936025 C587.95189891 1481.3200137 589.22908118 1480.44680569 590.50652021 1479.5739736 C593.0116288 1477.86116502 595.5148352 1476.14563535 598.01628584 1474.42748922 C600.71675551 1472.57293158 603.42246178 1470.72628955 606.13200849 1468.88500875 C615.22962433 1462.69124241 624.15660354 1456.27286456 633.05827802 1449.80151266 C635.3825435 1448.11655563 637.71319155 1446.44082769 640.04607099 1444.76782125 C648.94899646 1438.37868496 657.71614405 1431.86336194 666.36247724 1425.1311025 C667.96503766 1423.89836372 669.5699163 1422.66868853 671.17497724 1421.43920797 C683.45966836 1412.02266739 695.56672974 1402.39998779 707.55388349 1392.607665 C709.15483204 1391.30062709 710.75845701 1389.99686895 712.36247724 1388.6936025 C728.04679205 1375.92729975 743.38754779 1362.72179478 758.36247724 1349.1311025 C760.02849146 1347.63037788 761.69516806 1346.13038828 763.36247724 1344.6311025 C764.19521162 1343.88086813 765.02794599 1343.13063375 765.88591474 1342.357665 C767.47132345 1340.93229755 769.05960326 1339.51011312 770.65153974 1338.09204 C781.72920516 1328.19994413 792.55106578 1318.04689266 802.99065107 1307.48364156 C805.69816264 1304.75535842 808.43384151 1302.12044288 811.36247724 1299.6311025 C815.05553492 1296.4869069 818.4914439 1293.11544391 821.92497724 1289.6936025 C822.72065107 1288.90469625 822.72065107 1288.90469625 823.53239912 1288.0998525 C826.39197031 1285.22970337 829.11967799 1282.29033152 831.76482099 1279.22094625 C836.05602518 1274.26389625 840.72374886 1269.71928053 845.40153974 1265.1311025 C849.31873579 1261.25927938 853.03132124 1257.29106241 856.62517256 1253.11791891 C859.56304707 1249.75810683 862.66120424 1246.55116101 865.73747724 1243.3186025 C870.79952051 1237.96389824 875.59986721 1232.5360339 880.19060224 1226.7717275 C882.64291001 1223.79014468 885.23337806 1220.95553456 887.86247724 1218.1311025 C892.11788984 1213.55190851 896.13571346 1208.83823083 900.05778974 1203.96704 C902.57042304 1200.87522344 905.14902364 1197.84679339 907.73747724 1194.8186025 C911.98749721 1189.82893409 916.08028524 1184.7364175 920.10295576 1179.56225485 C923.03192646 1175.80151208 926.01919644 1172.09712129 929.05022138 1168.41821188 C936.22156898 1159.70268079 942.94133308 1150.70268328 949.57878584 1141.576415 C951.97709574 1138.28850479 954.39765299 1135.01727567 956.81804365 1131.74560446 C967.65592218 1117.08718943 978.14111032 1102.22641823 988.36247724 1087.1311025 C988.85473799 1086.40439352 989.34699873 1085.67768453 989.85417646 1084.92895406 C1017.04998355 1044.68321178 1041.95583736 1002.93930546 1064.79167646 960.07739156 C1066.1235546 957.57924029 1067.46220941 955.08493506 1068.80388349 952.59204 C1083.76011783 924.65559537 1097.61284584 896.13711325 1110.36247724 867.1311025 C1110.66758222 866.43839254 1110.9726872 865.74568258 1111.28703779 865.03198141 C1146.91432014 784.08038094 1175.27706209 700.01609365 1196.36247724 614.1311025 C1196.55585676 613.34380758 1196.74923628 612.55651266 1196.94847578 611.74536031 C1220.15895421 516.95478349 1234.15913112 420.43967988 1243.36247724 262.1311025 C1242.83106123 261.99123922 1242.29964521 261.85137594 1241.75212568 261.70727438 C1213.52225414 254.18736855 1186.78517951 242.84647095 1163.36247724 225.1311025 C1162.73389814 224.66188375 1162.10531904 224.192665 1161.45769209 223.7092275 C1144.4679974 210.89916127 1128.63508193 195.5592071 1116.36247724 178.1311025 C1115.94353193 177.54055074 1115.52458662 176.94999899 1115.09294599 176.34155172 C1098.05119787 152.09824916 1086.54472266 125.86008417 1079.36247724 97.1311025 C742.76247724 97.1311025 406.16247724 97.1311025 59.36247724 97.1311025 Z " fill="#48FEDF" transform="translate(230.63752275705338,-0.13110250234603882)"/>
<path d="M0 0 C8.81465674 6.96053929 13.72151637 16.31692941 19 26 C19.7427417 27.3614917 19.7427417 27.3614917 20.50048828 28.75048828 C22.66237552 32.72439701 24.81651738 36.70233402 26.95849609 40.68701172 C30.84207358 47.90556147 34.8251781 55.0610101 38.875 62.1875 C46.15983575 75.02150091 46.15983575 75.02150091 49.3125 80.8125 C50.11107422 82.27623047 50.11107422 82.27623047 50.92578125 83.76953125 C52 86 52 86 52 88 C67.61244383 88.52602506 83.21978829 88.88766059 98.83966732 89.05958939 C106.09502641 89.14318559 113.34217444 89.27902537 120.59350586 89.53955078 C152.19606561 92.58187377 152.19606561 92.58187377 179.89028072 82.80429935 C185.09086435 76.85971853 187.73307281 69.817504 189.95339966 62.33599854 C191.31286522 58.00275407 193.37567857 54.59583633 195.921875 50.87890625 C196.56793701 49.81244873 197.21399902 48.74599121 197.87963867 47.6472168 C200.58697003 43.18211671 203.30068512 38.72092216 206.01611328 34.26074219 C207.31583209 32.12450734 208.61375159 29.98717649 209.90966797 27.84863281 C211.66274577 24.95775577 213.42391957 22.07197838 215.1875 19.1875 C215.94401855 17.9346521 215.94401855 17.9346521 216.71582031 16.65649414 C224.89342619 3.34657442 235.70463445 -5.60228146 251.15171051 -9.54988384 C254.88348156 -10.13961689 258.56690042 -10.14806367 262.33435059 -10.14717102 C263.17066214 -10.15084771 264.0069737 -10.1545244 264.86862803 -10.1583125 C267.6695864 -10.16932093 270.47050763 -10.17318839 273.27148438 -10.17700195 C275.28066118 -10.18326886 277.28983684 -10.18991586 279.29901123 -10.19691467 C285.89724931 -10.21793439 292.49548756 -10.22831667 299.09375 -10.23828125 C301.36839307 -10.2423299 303.64303601 -10.24644686 305.91767883 -10.25063133 C316.60761844 -10.26968019 327.29755117 -10.2839106 337.98750448 -10.2922433 C350.31005596 -10.3020081 362.63242744 -10.32830926 374.95491552 -10.36874419 C384.48974935 -10.39895325 394.02453174 -10.41371681 403.55941248 -10.41702431 C409.24901476 -10.41936975 414.9384247 -10.42826403 420.62797546 -10.45348549 C425.98620019 -10.47685433 431.34410711 -10.48096404 436.70236969 -10.47072411 C438.66101898 -10.47023074 440.61968439 -10.47649189 442.57828522 -10.49028015 C460.545479 -10.60961317 475.35042051 -7.74470885 489 5 C491.2734375 7.87280273 491.2734375 7.87280273 493.375 10.99609375 C493.94734375 11.84390663 493.94734375 11.84390663 494.53125 12.70884705 C498.54524866 18.7087138 502.29180241 24.8702611 506 31.0625 C506.7266814 32.26858225 507.4538246 33.47438637 508.18139648 34.67993164 C509.69156266 37.18301279 511.1997641 39.68726127 512.70654297 42.19238281 C516.11440665 47.85465144 519.54603678 53.50249346 522.97729492 59.15060425 C524.02401176 60.87412537 525.06964385 62.59830512 526.11523438 64.32250977 C527.38917809 66.42216355 528.68724231 68.50747243 530.01478577 70.57365417 C532 74 532 74 533.16539001 77.41741943 C534.81321232 81.51994136 536.25688443 84.51518596 540 87 C548.13131788 89.38644357 557.06445742 88.68560779 565.44650078 88.52005029 C568.84447279 88.46666898 572.24200583 88.48726794 575.64025879 88.49980164 C582.06539944 88.51236954 588.48821082 88.45903536 594.91282892 88.38163012 C602.23090618 88.29669789 609.54851853 88.28582211 616.8670187 88.28096449 C631.91226851 88.26932958 646.9555949 88.16535252 662 88 C662.30561356 87.05843048 662.61122711 86.11686096 662.92610168 85.14675903 C663.89939291 82.29480097 665.00223744 79.96144389 666.51171875 77.3671875 C667.01461426 76.49288086 667.51750977 75.61857422 668.03564453 74.71777344 C668.58075684 73.7796582 669.12586914 72.84154297 669.6875 71.875 C674.49086416 63.50470073 679.14650585 55.06894074 683.67098999 46.5456543 C708.94063299 -1.01730895 708.94063299 -1.01730895 729 -8 C742.83266189 -11.98495337 756.80804833 -11.10314317 769.77734375 -4.609375 C781.06304012 1.83959435 789.69657246 10.62261261 794.21484375 23.04296875 C800.01821497 44.89944643 793.48209052 61.27621532 782.6875 80.4375 C781.98262893 81.70038114 781.27846152 82.96365526 780.57495117 84.22729492 C779.11619895 86.84611393 777.65448201 89.46324208 776.19042969 92.07910156 C773.04409884 97.70514115 769.92912174 103.34845877 766.81616211 108.99301147 C765.8124558 110.81258013 764.80764277 112.63153447 763.80273438 114.45043945 C760.10573716 121.14718125 756.44423626 127.86207164 752.81835938 134.59765625 C750.22760519 139.40684067 747.61674225 144.2049181 745 149 C744.51692383 149.88993652 744.03384766 150.77987305 743.53613281 151.69677734 C734.79746987 167.70179617 725.85041173 181.70078759 707.49765015 187.56459045 C699.02158758 189.81455563 690.39360956 189.4272434 681.68994141 189.40405273 C679.74884144 189.40976325 677.80774482 189.41673014 675.86665344 189.42485046 C670.62068265 189.44272217 665.37487969 189.44162471 660.12888765 189.43590808 C655.73797393 189.43280737 651.34709202 189.43891851 646.95618284 189.44494683 C636.59152961 189.45897096 626.22695884 189.45744851 615.86230469 189.44604492 C605.19506777 189.43456725 594.52808237 189.4486384 583.86087859 189.4754414 C574.67834607 189.49764399 565.49589225 189.50422546 556.31333482 189.49836498 C550.83958241 189.49500494 545.36599116 189.49734691 539.89226151 189.51461601 C534.74239931 189.53015572 529.59290785 189.52605197 524.44305992 189.50731087 C522.56181976 189.5036443 520.6805517 189.50667652 518.79933739 189.51719666 C501.48124627 189.60658921 487.28218731 186.78324671 474.171875 174.5625 C469.13829456 169.42086733 465.67199394 163.42692482 462.0625 157.25 C461.32841289 156.01479128 460.59303355 154.78034973 459.85644531 153.54663086 C458.32845737 150.98504764 456.80603087 148.42028504 455.28759766 145.85302734 C452.00011151 140.30396329 448.64863122 134.79388886 445.2963562 129.28381348 C444.30379364 127.6509935 443.31404699 126.01646275 442.32446289 124.38183594 C441.03857512 122.26038897 439.7242859 120.15589164 438.38188171 118.06974792 C436.5320357 115.07604225 435.13568679 112.04359582 433.7711792 108.80201721 C430.64023699 101.9643009 427.32786989 94.83384686 420.07501984 91.76059914 C411.98266497 89.88632797 403.71300805 90.01816346 395.45534897 90.17916441 C391.83098978 90.23290459 388.20766367 90.18287141 384.58325195 90.15005493 C378.49907369 90.11200026 372.42027231 90.16174751 366.33691406 90.26220703 C359.33373429 90.37653194 352.34338507 90.33949668 345.34051609 90.22385252 C339.29483417 90.12806936 333.25298286 90.11532055 327.20678616 90.17006457 C323.61005675 90.20256698 320.01933018 90.20791647 316.42300415 90.13779831 C301.58829211 89.4073929 301.58829211 89.4073929 288.5535717 95.06809616 C284.38907539 100.03557766 281.62646395 105.50029167 279.12118244 111.4459877 C277.50922319 115.1179715 275.43310884 118.42890403 273.28515625 121.8046875 C272.57581063 122.98323107 271.86952554 124.16362787 271.16772461 125.34667969 C269.70464163 127.79999836 268.23796673 130.25110104 266.76782227 132.70019531 C263.17755804 138.68222634 259.60063585 144.67122494 256.0546875 150.6796875 C254.84918516 152.70326015 253.64346925 154.72670558 252.4375 156.75 C251.91486572 157.64702637 251.39223145 158.54405273 250.85375977 159.46826172 C242.81417063 172.88493741 232.13446923 183.26888861 217 188 C212.64736182 189.09012746 208.39101547 189.148266 203.93139648 189.14717102 C203.1236698 189.15084771 202.31594311 189.1545244 201.48373985 189.1583125 C198.779518 189.16931766 196.07533461 189.17318783 193.37109375 189.17700195 C191.43088154 189.18326912 189.49067053 189.18991614 187.55046082 189.19691467 C181.17948234 189.21793168 174.80850369 189.22831654 168.4375 189.23828125 C166.24086495 189.24233003 164.04423002 189.24644699 161.84759521 189.25063133 C151.52393577 189.26967975 141.20028344 189.28391014 130.8766098 189.2922433 C118.97797923 189.30200735 107.0795351 189.32830669 95.18097019 189.36874419 C85.97309751 189.39895816 76.76527811 189.41371728 67.55735683 189.41702431 C62.06337137 189.41936923 56.56958516 189.4282566 51.07565308 189.45348549 C45.90127884 189.47686293 40.72723368 189.48096065 35.55282021 189.47072411 C33.66189793 189.47023094 31.77095892 189.476486 29.8800869 189.49028015 C13.65741371 189.60192872 -0.98352554 187.62854311 -13.24414062 175.84277344 C-18.78848192 169.79508408 -22.89561898 163.59823843 -26.75 156.375 C-27.34071289 155.29468506 -27.93142578 154.21437012 -28.54003906 153.10131836 C-30.373375 149.74125948 -32.18773512 146.37146132 -34 143 C-35.14484641 140.88878744 -36.29065556 138.77809661 -37.4375 136.66796875 C-39.62951604 132.63071983 -41.8149789 128.59002243 -43.99609375 124.546875 C-46.56964395 119.78398336 -49.17653819 115.04109159 -51.8125 110.3125 C-52.19607666 109.62389893 -52.57965332 108.93529785 -52.97485352 108.22583008 C-53.81684468 106.71449046 -54.65888895 105.20318042 -55.50097656 103.69189453 C-58.38218188 98.51792551 -61.25937815 93.34178823 -64.12826538 88.16098022 C-64.81991354 86.91316796 -65.51259647 85.66592855 -66.20645142 84.41934204 C-77.09838521 64.84757062 -86.49321389 47.86775531 -80.56396484 24.89404297 C-76.72724752 12.00865207 -68.46310618 2.67328136 -57 -4 C-38.16065853 -13.09080442 -17.2324321 -12.77975669 0 0 Z " fill="#48FEDF" transform="translate(443,771)"/>
<path d="M0 0 C3.40524755 3.03167609 6.62707474 6.18062513 9.77734375 9.47265625 C12.29573995 12.00775823 14.82962365 14.52352952 17.390625 17.015625 C23.33883894 22.84332519 28.76246743 28.81482731 33.77734375 35.47265625 C34.52540283 36.4467041 34.52540283 36.4467041 35.28857422 37.44042969 C66.69894105 78.39771385 66.69894105 78.39771385 63.77734375 104.47265625 C62.1309009 113.04710865 58.77988529 120.35317017 53.77734375 127.47265625 C53.33777344 128.10816406 52.89820313 128.74367188 52.4453125 129.3984375 C44.68219776 139.48824945 31.30067876 145.47888698 18.94921875 147.21875 C5.29306051 148.31191538 -8.27029216 144.87170846 -19.22265625 136.47265625 C-25.4133792 131.03383965 -29.64706679 125.07453417 -33.84765625 118.03515625 C-49.99810102 91.89212964 -71.40383922 70.61482885 -98.22265625 55.47265625 C-99.17277588 54.9319751 -99.17277588 54.9319751 -100.14208984 54.38037109 C-116.63699516 45.067515 -133.71882198 38.53586934 -152.22265625 34.47265625 C-152.95516602 34.30749512 -153.68767578 34.14233398 -154.44238281 33.97216797 C-177.33275358 29.04671436 -204.41608632 29.26122176 -227.22265625 34.47265625 C-228.07472656 34.66069824 -228.92679688 34.84874023 -229.8046875 35.04248047 C-256.52331897 41.11797246 -281.88470592 53.25962946 -303.22265625 70.47265625 C-304.13015625 71.17777344 -305.03765625 71.88289062 -305.97265625 72.609375 C-321.60217632 84.97534472 -333.79197697 99.59753524 -344.34399414 116.4362793 C-353.96019725 131.757666 -364.07015738 141.96568571 -382.22265625 146.47265625 C-398.57849248 149.25090788 -411.95463414 144.78266723 -425.546875 135.96484375 C-435.17887429 128.38911397 -441.77535523 115.55136603 -443.22265625 103.47265625 C-444.13472482 89.07157364 -441.58325416 78.75147185 -434.22265625 66.47265625 C-433.63484375 65.46460938 -433.04703125 64.4565625 -432.44140625 63.41796875 C-424.82231331 50.64662034 -415.86315737 38.78441213 -406.22265625 27.47265625 C-405.59875 26.73660156 -404.97484375 26.00054687 -404.33203125 25.2421875 C-392.77039743 12.0191378 -380.28884519 -0.83723112 -366.05957031 -11.18652344 C-364.0320157 -12.66649818 -362.03039506 -14.17845358 -360.02734375 -15.69140625 C-349.55397855 -23.51822643 -338.67106106 -30.23021632 -327.22265625 -36.52734375 C-326.55105469 -36.9022998 -325.87945312 -37.27725586 -325.1875 -37.66357422 C-247.36150632 -81.07711463 -150.42268353 -82.69679579 0 0 Z " fill="#48FEDF" transform="translate(693.22265625,331.52734375)"/>
<path d="M0 0 C0.86315826 -0.00100708 1.72631653 -0.00201416 2.6156311 -0.00305176 C59.80350121 0.04190986 118.0091257 17.43021867 164.5 51.25 C165.14582031 51.71615723 165.79164063 52.18231445 166.45703125 52.66259766 C171.20511312 56.10677272 175.87468981 59.64289367 180.5 63.25 C182.046875 64.45462891 182.046875 64.45462891 183.625 65.68359375 C198.8771859 78.09585441 213.72381449 92.60957311 225.25927734 108.56054688 C226.60157128 110.38830642 227.99242308 112.17088563 229.39453125 113.953125 C235.09134685 121.25242812 240.25391005 128.7723978 245.0625 136.6875 C245.81358032 137.91170654 245.81358032 137.91170654 246.57983398 139.16064453 C253.91741762 151.51616424 256.40909394 164.79907432 253.81640625 178.9921875 C249.90594712 193.82272544 242.31769327 203.98375917 229.5 212.25 C217.20685408 219.21961834 204.09677318 220.79692058 190.36328125 217.49609375 C173.43768276 212.31655721 164.03224773 202.16175296 155.0144043 187.47949219 C147.73676002 175.65317582 139.10935289 165.25688675 129.5 155.25 C128.96576416 154.6923999 128.43152832 154.1347998 127.88110352 153.56030273 C98.20045482 123.15196165 52.5038343 103.66370461 10.08203125 102.94921875 C7.15854249 102.92040376 4.23606856 102.92296499 1.3125 102.9375 C0.54719971 102.93932281 -0.21810059 102.94114563 -1.0065918 102.94302368 C-13.05706889 102.99120927 -24.70443473 103.60329189 -36.5 106.25 C-37.27085937 106.41628906 -38.04171875 106.58257812 -38.8359375 106.75390625 C-72.70873247 114.25034448 -102.30129678 131.75008576 -127.5 155.25 C-128.62728516 156.29607422 -128.62728516 156.29607422 -129.77734375 157.36328125 C-141.25338882 168.39561281 -149.77776807 181.84319743 -158.3671875 195.140625 C-165.92368565 206.49278351 -175.29840882 212.79940331 -188 217.5625 C-205.80623584 221.06015347 -220.13919813 217.47789572 -235.046875 207.5546875 C-244.25064196 200.17026982 -250.71001604 187.85980249 -252.5 176.25 C-254.4832523 145.03816047 -234.22581762 120.42300387 -214.63256836 97.8425293 C-210.76369256 93.46243494 -206.71299675 89.29991301 -202.5 85.25 C-200.03820371 82.8040352 -197.59285649 80.3456656 -195.17578125 77.85546875 C-189.59949721 72.15014673 -183.85957151 67.05825841 -177.5 62.25 C-176.84918457 61.74984375 -176.19836914 61.2496875 -175.52783203 60.734375 C-132.25539019 27.55076003 -82.65845423 7.50196456 -28.5 1.25 C-27.77184082 1.15428711 -27.04368164 1.05857422 -26.29345703 0.95996094 C-17.56612735 -0.08574444 -8.77696625 0.00710609 0 0 Z " fill="#48FEDF" transform="translate(1095.5,259.75)"/>
<path d="M0 0 C63.36 0 126.72 0 192 0 C189.75025491 11.24872543 189.75025491 11.24872543 188.14672852 16.69726562 C187.78698944 17.92769089 187.42725037 19.15811615 187.05661011 20.42582703 C186.66408924 21.75264861 186.27151976 23.07945582 185.87890625 24.40625 C185.46314129 25.82330999 185.04779821 27.24049382 184.63284302 28.65779114 C183.74527825 31.68673883 182.85524495 34.71494523 181.96322632 37.74258423 C179.80285328 45.07631436 177.65636759 52.41411587 175.5084095 59.75148964 C174.76996876 62.2735659 174.03105108 64.79550211 173.292099 67.31742859 C168.90122265 82.30843772 164.56843404 97.31580534 160.25691986 112.32980347 C158.50053746 118.44545474 156.74234555 124.56058635 154.984375 130.67578125 C154.78584301 131.36647327 154.58731102 132.0571653 154.38276291 132.76878738 C149.08871046 151.18526803 143.76285343 169.59255116 138.4375 188 C137.93912677 189.7226967 137.44075438 191.44539364 136.94238281 193.16809082 C136.69518242 194.02257372 136.44798203 194.87705662 136.19329071 195.75743294 C134.92570246 200.13906033 133.65815606 204.52069982 132.390625 208.90234375 C132.1360704 209.78226612 131.88151581 210.66218849 131.61924744 211.56877518 C127.64534505 225.30583233 123.67581176 239.04414771 119.7087841 252.78319168 C118.80285643 255.92069077 117.89686632 259.05817182 116.99085999 262.19564819 C114.36688981 271.28253626 111.74312776 280.36948412 109.12043953 289.45674229 C108.04567436 293.18026207 106.97048752 296.90365999 105.89519501 300.62702751 C105.39723916 302.35162946 104.8994661 304.07628419 104.40189362 305.80099678 C101.97504575 314.21285052 99.54808699 322.62383736 97 331 C96.34 331 95.68 331 95 331 C84.83784797 296.24589873 74.68893457 261.48824574 64.6875 226.6875 C64.30277509 225.34889729 63.91805016 224.01029459 63.5333252 222.67169189 C63.341022 222.00258286 63.1487188 221.33347382 62.95058823 220.64408875 C61.96192187 217.20411156 60.97318277 213.76415529 59.984375 210.32421875 C59.78583168 209.63347008 59.58728836 208.94272141 59.38272858 208.23104095 C54.08867871 189.81462001 48.76280411 171.4074026 43.4375 153 C42.9384545 151.2749537 42.43941072 149.54990691 41.94036865 147.82485962 C41.69277361 146.96899545 41.44517857 146.11313128 41.19008064 145.23133183 C39.92096359 140.84433339 38.65188197 136.4573247 37.3828125 132.0703125 C37.12801495 131.18953978 36.87321739 130.30876705 36.6106987 129.40130424 C32.35892323 114.70356879 28.11206726 100.00441587 23.8671875 85.3046875 C23.26996654 83.23667314 22.67274264 81.16865962 22.07551575 79.10064697 C19.47815204 70.10661335 16.88099754 61.11251953 14.2847023 52.11817741 C13.21837308 48.42441567 12.15170144 44.73075287 11.08494949 41.03711319 C10.59426414 39.3378243 10.103725 37.63849317 9.61335373 35.93911362 C8.93378964 33.58413303 8.25365334 31.22931823 7.57348633 28.87451172 C7.3608527 28.136835 7.14821907 27.39915829 6.929142 26.63912773 C5.82438334 22.81492426 4.70294532 18.99650839 3.55795288 15.18414307 C3.20801159 14.01371554 3.20801159 14.01371554 2.85100079 12.81964302 C2.40627549 11.33517412 1.95819762 9.85170402 1.5062151 8.36942863 C0.63844427 5.46832859 0 3.04703322 0 0 Z " fill="#48FEDF" transform="translate(704,1027)"/>
<path d="M0 0 C1.20269531 -0.00335861 2.40539063 -0.00671722 3.64453125 -0.01017761 C6.92362709 -0.01801668 10.2026848 -0.02135323 13.48178887 -0.0219934 C15.53625966 -0.02270724 17.59072394 -0.02484786 19.6451931 -0.02749062 C26.82905876 -0.03672458 34.01290595 -0.04082795 41.19677734 -0.04003906 C47.8666524 -0.03943879 54.53644646 -0.04998572 61.20630103 -0.06578273 C66.95521048 -0.07890769 72.7040936 -0.08422089 78.45301789 -0.08358365 C81.87662404 -0.08333012 85.3001581 -0.0861006 88.72374916 -0.0967617 C92.54767117 -0.10660661 96.37138686 -0.1036657 100.1953125 -0.09765625 C101.31203842 -0.10327576 102.42876434 -0.10889526 103.57933044 -0.11468506 C114.45084175 -0.07147539 123.60253381 1.06882586 132.79174805 7.14526367 C133.67862305 7.72276367 134.56549805 8.30026367 135.47924805 8.89526367 C143.19700956 16.40443703 146.89588055 24.82226519 147.22924805 35.45776367 C146.94070933 46.64418773 143.9546876 53.9298507 136.15893555 61.98120117 C126.7788187 70.55642351 117.85536954 71.44508168 105.51953125 71.45166016 C104.17837569 71.45929143 102.83722447 71.46772058 101.49607849 71.47688293 C97.86769522 71.49874259 94.23939619 71.50761556 90.61095452 71.51270938 C88.3385439 71.51636383 86.06615497 71.52260957 83.79375267 71.52971077 C75.85012223 71.55417803 67.90655681 71.56725074 59.96289062 71.57080078 C52.58456624 71.57443141 45.20665899 71.60429952 37.82846195 71.64620537 C31.47318217 71.68102235 25.11803985 71.6963512 18.76266545 71.69704682 C14.97613182 71.69783592 11.19002343 71.70640349 7.40358925 71.73504448 C3.83694877 71.76142137 0.27108013 71.76332312 -3.29561424 71.74738884 C-5.20889563 71.7447399 -7.12216334 71.76662486 -9.03530884 71.7895813 C-19.31649326 71.70360361 -29.04281199 69.12555879 -36.6809082 61.87963867 C-44.64370396 52.83748697 -47.7861826 43.36646815 -47.0324707 31.34057617 C-45.59070281 21.05887784 -40.55012702 13.4223278 -32.6340332 6.83666992 C-22.70119206 -0.08912753 -11.65590119 -0.00470458 0 0 Z " fill="#48FEE0" transform="translate(1050.208251953125,422.854736328125)"/>
<path d="M0 0 C1.20269531 -0.00335861 2.40539062 -0.00671722 3.64453125 -0.01017761 C6.92362709 -0.01801668 10.2026848 -0.02135323 13.48178887 -0.0219934 C15.53625966 -0.02270724 17.59072394 -0.02484786 19.6451931 -0.02749062 C26.82905876 -0.03672458 34.01290595 -0.04082795 41.19677734 -0.04003906 C47.8666524 -0.03943879 54.53644646 -0.04998572 61.20630103 -0.06578273 C66.95521048 -0.07890769 72.7040936 -0.08422089 78.45301789 -0.08358365 C81.87662404 -0.08333012 85.3001581 -0.0861006 88.72374916 -0.0967617 C92.54767117 -0.10660661 96.37138686 -0.1036657 100.1953125 -0.09765625 C101.31203842 -0.10327576 102.42876434 -0.10889526 103.57933044 -0.11468506 C117.2525162 -0.06033992 128.80966384 2.16317946 138.79174805 12.14526367 C145.88938681 22.28961068 148.20234483 31.83705641 146.79174805 44.14526367 C144.67568461 53.07176431 140.01691114 59.57254324 132.79174805 65.14526367 C126.34567419 69.08663141 120.74782251 71.25985908 113.18370056 71.29243469 C112.04135956 71.29959 110.89901855 71.3067453 109.72206116 71.31411743 C108.47267258 71.31680634 107.223284 71.31949524 105.93603516 71.32226562 C104.6168811 71.32883682 103.29772705 71.33540802 101.93859863 71.34217834 C97.56544198 71.36318337 93.19228514 71.37358031 88.8190918 71.38354492 C87.30993698 71.3875944 85.80078234 71.39171138 84.29162788 71.395895 C77.197215 71.41494222 70.10281245 71.42917184 63.00837892 71.43750697 C54.83896326 71.44726516 46.66981958 71.47354929 38.50049967 71.51400787 C32.17418255 71.54425531 25.84794298 71.55898416 19.52155501 71.56228799 C15.74903344 71.56462947 11.97680256 71.57347078 8.20435905 71.59874916 C4.64935118 71.62218545 1.09482214 71.62620158 -2.46024323 71.61598778 C-4.3701592 71.61526343 -6.2800517 71.63424667 -8.18986511 71.65405273 C-19.15013908 71.58856141 -29.22780235 69.05570933 -37.20825195 61.14526367 C-44.11381902 52.54469378 -47.94872459 43.45244111 -46.95825195 32.34057617 C-45.3214845 21.78927168 -40.79093419 13.17458569 -32.1887207 6.60229492 C-22.13139135 0.04483926 -11.63690094 -0.00469691 0 0 Z " fill="#48FEE0" transform="translate(457.208251953125,422.854736328125)"/>
<path d="M0 0 C1.07458466 -0.00861557 2.14916931 -0.01723114 3.25631714 -0.02610779 C6.78066647 -0.04866347 10.30421381 -0.04204701 13.82861328 -0.03295898 C16.29664341 -0.03819953 18.76467153 -0.04447758 21.23269653 -0.05174255 C26.39546153 -0.06212796 31.55795059 -0.0576123 36.72070312 -0.04296875 C43.31329571 -0.02579366 49.90501566 -0.04927172 56.49751091 -0.08445835 C61.591865 -0.10649572 66.6860124 -0.10497526 71.78039932 -0.09669304 C74.20990073 -0.09587682 76.63941782 -0.10267664 79.06887436 -0.11746407 C104.8832351 -0.25050561 104.8832351 -0.25050561 115.99267578 7.89282227 C125.13169632 17.47001502 128.20301845 25.71995372 128.03955078 38.86547852 C127.27490594 49.42432419 122.48086394 56.49943781 114.77392578 63.53344727 C106.96912367 69.56764999 99.68527037 70.83345135 90.00195312 70.83984375 C88.92795258 70.84816727 87.85395203 70.85649078 86.74740601 70.86506653 C83.20152136 70.88913376 79.65582092 70.89793591 76.10986328 70.90454102 C73.63611803 70.91351165 71.16237332 70.92263358 68.68862915 70.93190002 C63.50204146 70.94838498 58.31551827 70.95608894 53.12890625 70.95898438 C46.50487233 70.96435954 39.88145071 71.00200709 33.25758934 71.04772854 C28.14610623 71.0775756 23.03476898 71.08470965 17.92320633 71.08571053 C15.48252186 71.0898996 13.04183642 71.10228065 10.60123825 71.12322807 C-17.0131818 71.34132336 -17.0131818 71.34132336 -28.16357422 61.34594727 C-36.21543475 52.60726742 -38.62011996 43.823802 -38.49951172 32.20922852 C-37.7943301 22.72957271 -33.98017702 16.03519897 -27.22607422 9.53344727 C-26.29794922 8.62594727 -25.36982422 7.71844727 -24.41357422 6.78344727 C-16.71320098 1.34788969 -9.27778929 -0.06100464 0 0 Z " fill="#48FEDF" transform="translate(755.22607421875,909.466552734375)"/>
</svg>
